<svg width="212" height="333" viewBox="0 0 212 333" fill="none" xmlns="http://www.w3.org/2000/svg">
<path d="M177.16 109.52C170.355 109.52 164.035 111.547 158.726 115.001C152.808 105.032 141.964 98.3165 129.562 98.3165C122.757 98.3165 116.437 100.344 111.128 103.797C105.21 93.8282 94.3659 87.113 81.9639 87.113C77.0967 87.113 72.4756 88.1677 68.2879 90.0192V34.6402C68.2879 15.9292 53.0729 0.714233 34.3699 0.714233C15.6589 0.714233 0.439941 15.9292 0.439941 34.6402L0.432129 227.44C0.432129 285.518 47.6861 332.76 105.762 332.76C163.832 332.76 211.082 285.514 211.082 227.44V143.44C211.074 124.729 195.855 109.514 177.152 109.514L177.16 109.52ZM190.836 227.45C190.836 274.36 152.676 312.524 105.766 312.524C58.8559 312.524 20.6919 274.36 20.6919 227.45V34.65C20.6919 27.107 26.8286 20.974 34.3719 20.974C41.911 20.974 48.0399 27.1107 48.0399 34.65V181.24C48.0399 186.83 52.5751 191.365 58.1649 191.365C63.7547 191.365 68.2899 186.83 68.2899 181.24V121.041C68.2899 113.498 74.4227 107.365 81.9659 107.365C89.505 107.365 95.6339 113.502 95.6339 121.041V181.24C95.6339 186.83 100.169 191.365 105.763 191.365C111.353 191.365 115.888 186.83 115.888 181.24V132.24C115.888 124.697 122.021 118.564 129.564 118.564C137.103 118.564 143.232 124.701 143.232 132.24V181.24C143.232 186.83 147.767 191.365 153.361 191.365C158.951 191.365 163.486 186.83 163.486 181.24V143.439C163.486 135.896 169.619 129.763 177.162 129.763C184.701 129.763 190.83 135.9 190.83 143.439L190.836 227.45Z" fill="#454545"/>
</svg>
