<svg width="219" height="169" viewBox="0 0 219 169" fill="none" xmlns="http://www.w3.org/2000/svg">
<path d="M162.96 90.4332C164.578 90.4332 166.226 90.0425 167.75 89.2184L205.383 68.9564C210.312 66.3002 212.148 60.1712 209.5 55.2494C206.844 50.3197 200.707 48.4838 195.785 51.1322L158.152 71.3942C153.222 74.0426 151.386 80.1794 154.035 85.1092C155.863 88.5037 159.351 90.4332 162.96 90.4332ZM47.5005 131.277L13.3555 149.672C8.4336 152.328 6.58989 158.465 9.24609 163.387C11.0781 166.782 14.5664 168.711 18.168 168.711C19.793 168.711 21.4336 168.321 22.961 167.497L57.106 149.102C62.0279 146.445 63.8716 140.309 61.2154 135.387C58.567 130.465 52.4147 128.633 47.5005 131.277ZM84.9185 63.9062C89.8404 61.25 91.6841 55.1132 89.0279 50.1912L69.1799 13.3552C66.5315 8.43326 60.3869 6.59736 55.4649 9.24576C50.543 11.902 48.6993 18.0388 51.3555 22.9608L71.2035 59.7968C73.0355 63.1913 76.5238 65.121 80.1254 65.121C81.7426 65.121 83.3911 64.7303 84.9185 63.9062ZM124.344 59.6953C125.313 59.9882 126.294 60.121 127.255 60.121C131.61 60.121 135.637 57.289 136.95 52.9022L148.911 13.0352C150.513 7.67584 147.477 2.03124 142.122 0.426244C136.759 -1.17146 131.118 1.85984 129.517 7.21924L117.556 47.0862C115.95 52.4495 118.985 58.0903 124.344 59.6953ZM51.7785 102.269C56.134 102.269 60.1613 99.4373 61.4738 95.0505C63.0793 89.6911 60.0402 84.0465 54.6847 82.4455L13.0327 69.9535C7.6616 68.3558 2.02869 71.3871 0.427686 76.7465C-1.17391 82.1059 1.86129 87.7505 7.21679 89.3515L48.8688 101.839C49.8414 102.132 50.8136 102.269 51.7785 102.269ZM155.898 123.367C154.293 128.723 157.332 134.371 162.691 135.972L205.805 148.91C206.773 149.207 207.754 149.34 208.715 149.34C213.066 149.34 217.094 146.508 218.41 142.121C220.012 136.766 216.976 131.117 211.621 129.516L168.508 116.578C163.145 114.945 157.507 118.008 155.898 123.367Z" fill="#3584dd"/>
</svg>
