<svg width="22" height="25" viewBox="0 0 22 25" fill="none" xmlns="http://www.w3.org/2000/svg">
<path d="M11 4.41176C16.2651 4.41176 20.5333 8.69141 20.5333 13.9706C20.5333 19.2498 16.2651 23.5294 11 23.5294C5.7349 23.5294 1.46667 19.2498 1.46667 13.9706C1.46667 11.129 2.70329 8.57699 4.66638 6.82612L3.69196 5.72697C1.42687 7.7472 0 10.6918 0 13.9706C0 20.062 4.92487 25 11 25C17.0751 25 22 20.062 22 13.9706C22 7.87919 17.0751 2.94118 11 2.94118L12.8333 1.10294L11.7333 0L8.06667 3.67647L11.7333 7.35294L12.8333 6.25L11 4.41176Z" fill="#454545"/>
</svg>
